<?xml version="1.0" encoding="UTF-8" standalone="no"?>
<svg
   xmlns:dc="http://purl.org/dc/elements/1.1/"
   xmlns:cc="http://creativecommons.org/ns#"
   xmlns:rdf="http://www.w3.org/1999/02/22-rdf-syntax-ns#"
   xmlns:svg="http://www.w3.org/2000/svg"
   xmlns="http://www.w3.org/2000/svg"
   xmlns:sodipodi="http://sodipodi.sourceforge.net/DTD/sodipodi-0.dtd"
   xmlns:inkscape="http://www.inkscape.org/namespaces/inkscape"
   width="256"
   height="256"
   viewBox="0 0 67.733332 67.733335"
   version="1.1"
   id="svg5"
   inkscape:version="1.0.2-2 (e86c870879, 2021-01-15)"
   sodipodi:docname="bitnode burner toast ff.xaml">
  <metadata
     id="metadata27">
    <rdf:RDF>
      <cc:Work
         rdf:about="">
        <dc:format>image/svg+xml</dc:format>
        <dc:type
           rdf:resource="http://purl.org/dc/dcmitype/StillImage" />
        <dc:title></dc:title>
      </cc:Work>
    </rdf:RDF>
  </metadata>
  <sodipodi:namedview
     id="namedview7"
     pagecolor="#ffffff"
     bordercolor="#666666"
     borderopacity="1.0"
     inkscape:pageshadow="2"
     inkscape:pageopacity="0.0"
     inkscape:pagecheckerboard="0"
     inkscape:document-units="mm"
     showgrid="true"
     units="px"
     inkscape:zoom="2.326908"
     inkscape:cx="16.975318"
     inkscape:cy="76.711242"
     inkscape:window-width="1631"
     inkscape:window-height="1304"
     inkscape:window-x="822"
     inkscape:window-y="130"
     inkscape:window-maximized="0"
     inkscape:current-layer="layer3"
     inkscape:document-rotation="0">
    <inkscape:grid
       type="xygrid"
       id="grid824" />
  </sodipodi:namedview>
  <defs
     id="defs2">
    <rect
       x="2.6458333"
       y="47.625"
       width="62.177083"
       height="13.229167"
       id="rect43" />
    <rect
       x="1.3229167"
       y="48.947917"
       width="64.822917"
       height="11.90625"
       id="rect31" />
    <rect
       x="1.3229167"
       y="48.947917"
       width="64.822917"
       height="11.90625"
       id="rect39" />
    <filter
       style="color-interpolation-filters:sRGB"
       inkscape:label="Invert"
       id="filter90">
      <feColorMatrix
         values="-1 0 0 0 1 0 -1 0 0 1 0 0 -1 0 1 -0.21 -0.72 -0.07 2 0 "
         result="fbSourceGraphic"
         id="feColorMatrix88" />
      <feColorMatrix
         result="fbSourceGraphicAlpha"
         in="fbSourceGraphic"
         values="0 0 0 -1 0 0 0 0 -1 0 0 0 0 -1 0 0 0 0 1 0"
         id="feColorMatrix96" />
      <feColorMatrix
         id="feColorMatrix98"
         values="-1 0 0 0 1 0 -1 0 0 1 0 0 -1 0 1 -0.21 -0.72 -0.07 2 0 "
         result="fbSourceGraphic"
         in="fbSourceGraphic" />
      <feColorMatrix
         result="fbSourceGraphicAlpha"
         in="fbSourceGraphic"
         values="0 0 0 -1 0 0 0 0 -1 0 0 0 0 -1 0 0 0 0 1 0"
         id="feColorMatrix104" />
      <feColorMatrix
         id="feColorMatrix106"
         values="-1 0 0 0 1 0 -1 0 0 1 0 0 -1 0 1 -0.21 -0.72 -0.07 2 0 "
         result="color2"
         in="fbSourceGraphic" />
    </filter>
    <filter
       style="color-interpolation-filters:sRGB"
       inkscape:label="Invert"
       id="filter94">
      <feColorMatrix
         values="-1 0 0 0 1 0 -1 0 0 1 0 0 -1 0 1 -0.21 -0.72 -0.07 2 0 "
         result="fbSourceGraphic"
         id="feColorMatrix92" />
      <feColorMatrix
         result="fbSourceGraphicAlpha"
         in="fbSourceGraphic"
         values="0 0 0 -1 0 0 0 0 -1 0 0 0 0 -1 0 0 0 0 1 0"
         id="feColorMatrix100" />
      <feColorMatrix
         id="feColorMatrix102"
         values="-1 0 0 0 1 0 -1 0 0 1 0 0 -1 0 1 -0.21 -0.72 -0.07 2 0 "
         result="fbSourceGraphic"
         in="fbSourceGraphic" />
      <feColorMatrix
         result="fbSourceGraphicAlpha"
         in="fbSourceGraphic"
         values="0 0 0 -1 0 0 0 0 -1 0 0 0 0 -1 0 0 0 0 1 0"
         id="feColorMatrix108" />
      <feColorMatrix
         id="feColorMatrix110"
         values="-1 0 0 0 1 0 -1 0 0 1 0 0 -1 0 1 -0.21 -0.72 -0.07 2 0 "
         result="color2"
         in="fbSourceGraphic" />
    </filter>
  </defs>
  <g
     inkscape:groupmode="layer"
     id="layer2"
     inkscape:label="background">
    <rect
       style="fill-opacity: 0%;stroke:none;stroke-width:7.02745"
       id="rect849"
       width="67.73333"
       height="67.73333"
       x="0"
       y="0" />
  </g>
  <g
     inkscape:groupmode="layer"
     id="layer3"
     inkscape:label="toast">
    <path
       d="M 0,0 H 512 V 512 H 0 Z"
       fill="#000000"
       fill-opacity="1"
       id="path62"
       style="filter:url(#filter94)"
       transform="matrix(0.04774481,0,0,0.04774481,20.797719,21.566417)" />
    <g
       class=""
       style="filter:url(#filter90)"
       id="g66"
       transform="matrix(0.04774481,0,0,0.04774481,20.79772,21.566417)">
      <path
         d="M 256,16 C 121,16 16,76 16,136 c 0,30 15,45 30,60 -15,15 -30,54.417 -30,75 v 165 c 0,30 30,60 60,60 h 360 c 30,0 60,-15 60,-60 V 256 c 0,-18.957 -15,-45 -30,-60 15,-15 30,-30 30,-60 C 496,76 391,16 256,16 Z m 0,60 c 105,0 180,15 180,60 0,15 -15,45 -30,60 15,15 30,60 30,75 V 436 H 76 V 271 C 76,256 91,211 106,196 91,181 76,151 76,136 76,91 151,76 256,76 Z m -10.375,27.125 A 15,15 0 0 0 234.781,107.5 L 107.5,234.78 a 15,15 0 0 0 0,21.22 l 10.625,10.594 a 15,15 0 0 0 21.22,0 l 127.28,-127.28 a 15,15 0 0 0 0,-21.19 L 256,107.5 a 15,15 0 0 0 -10.375,-4.375 z m 100.75,37.125 a 15,15 0 0 0 -10.813,4.375 L 144.625,335.563 a 15,15 0 0 0 0,21.187 l 10.625,10.625 a 15,15 0 0 0 21.22,0 L 367.375,176.437 a 15,15 0 0 0 0,-21.187 L 356.781,144.625 A 15,15 0 0 0 346.376,140.25 Z M 383.5,241 a 15,15 0 0 0 -10.813,4.406 l -127.28,127.28 a 15,15 0 0 0 0,21.19 L 256,404.5 a 15,15 0 0 0 21.22,0 L 404.5,277.22 a 15,15 0 0 0 0,-21.22 L 393.906,245.406 A 15,15 0 0 0 383.5,241 Z"
         fill="#ffffff"
         fill-opacity="1"
         id="path64" />
    </g>
  </g>
  <g
     inkscape:label="main"
     inkscape:groupmode="layer"
     id="layer1">
    <text
       xml:space="preserve"
       style="font-weight:bold;font-size:11.3623px;line-height:1.25;font-family:sans-serif;-inkscape-font-specification:'sans-serif Bold';fill:#000000;fill-opacity:1;stroke-width:0.152171"
       x="8.1764565"
       y="19.130114"
       id="text8876"><tspan
         sodipodi:role="line"
         id="tspan8874"
         style="fill:#000000;fill-opacity:1;stroke-width:0.152171"
         x="8.1764565"
         y="19.130114">Bitnode</tspan></text>
    <text
       xml:space="preserve"
       id="text29"
       style="font-style:normal;font-weight:normal;font-size:10.5833px;line-height:1.25;font-family:sans-serif;white-space:pre;shape-inside:url(#rect31);fill:#000000;fill-opacity:1;stroke:none;" />
    <text
       xml:space="preserve"
       id="text37"
       style="font-style:normal;font-weight:normal;font-size:10.5833px;line-height:1.25;font-family:sans-serif;white-space:pre;shape-inside:url(#rect39);fill:#000000;fill-opacity:1;stroke:none;" />
    <text
       xml:space="preserve"
       id="text41"
       style="font-style:normal;font-weight:normal;font-size:10.5833px;line-height:1.25;font-family:sans-serif;white-space:pre;shape-inside:url(#rect43);fill:#000000;fill-opacity:1;stroke:none;"
       transform="translate(9.6258855,-3.4111792)"><tspan
         x="2.6464844"
         y="57.280465"><tspan
           style="font-style:normal;font-variant:normal;font-weight:bold;font-stretch:normal;font-family:sans-serif;-inkscape-font-specification:'sans-serif Bold'">Burner</tspan></tspan></text>
  </g>
</svg>
